<mxfile host="app.diagrams.net" modified="2021-01-11T12:43:19.866Z" agent="5.0 (Windows NT 10.0; Win64; x64) AppleWebKit/537.36 (KHTML, like Gecko) Chrome/87.0.4280.88 Safari/537.36" etag="r6H28FYOCbMs-jV4VGbq" version="14.1.9" type="github">
  <diagram id="epEG1ClVKPI_BtRmQo1g" name="Page-1">
    <mxGraphModel dx="933" dy="1602" grid="1" gridSize="10" guides="1" tooltips="1" connect="1" arrows="1" fold="1" page="1" pageScale="1" pageWidth="827" pageHeight="1169" math="0" shadow="0">
      <root>
        <mxCell id="0" />
        <mxCell id="1" parent="0" />
        <mxCell id="W65XUNS268fOXEzA6fqX-1" value="아아아" style="rounded=0;whiteSpace=wrap;html=1;" parent="1" vertex="1">
          <mxGeometry x="350" y="-240" width="120" height="60" as="geometry" />
        </mxCell>
        <mxCell id="HWvqaubLg-qxddMKXGJ7-1" value="" style="rounded=0;whiteSpace=wrap;html=1;" vertex="1" parent="1">
          <mxGeometry x="390" y="40" width="120" height="60" as="geometry" />
        </mxCell>
        <mxCell id="HWvqaubLg-qxddMKXGJ7-2" style="edgeStyle=orthogonalEdgeStyle;rounded=0;orthogonalLoop=1;jettySize=auto;html=1;exitX=0;exitY=0.5;exitDx=0;exitDy=0;entryX=0.083;entryY=0.5;entryDx=0;entryDy=0;entryPerimeter=0;" edge="1" parent="1" source="W65XUNS268fOXEzA6fqX-1" target="W65XUNS268fOXEzA6fqX-1">
          <mxGeometry relative="1" as="geometry" />
        </mxCell>
      </root>
    </mxGraphModel>
  </diagram>
</mxfile>
